<svg xmlns="http://www.w3.org/2000/svg" width="24" height="24" viewBox="0 0 24 24" fill="none" stroke="#88C0D0" stroke-width="1.5">
  <path
		d="M10.1997 2.06364L1.28218 17.6856C1.09832 18.0197 1.00104 18.3985 1.00001 18.7843C0.998979 19.1702 1.09424 19.5495 1.27631 19.8847C1.45838 20.2199 1.72092 20.4992 2.0378 20.6949C2.35469 20.8906 2.71487 20.9958 3.08252 21H20.9175C21.2851 20.9958 21.6453 20.8906 21.9622 20.6949C22.2791 20.4992 22.5416 20.2199 22.7237 19.8847C22.9058 19.5495 23.001 19.1702 23 18.7843C22.999 18.3985 22.9017 18.0197 22.7178 17.6856L13.8003 2.06364C13.6127 1.73895 13.3484 1.4705 13.033 1.28419C12.7177 1.09788 12.3619 1 12 1C11.6381 1 11.2823 1.09788 10.967 1.28419C10.6516 1.4705 10.3873 1.73895 10.1997 2.06364Z"
	/>
	<g clip-path="url(#clip)">
		<path d="M11.2222 1L4 13H10.5L9.77778 21L17 9H10.5L11.2222 1Z" />
	</g>
	<defs>
		<clipPath id="clip">
			<rect width="15" height="22" transform="translate(3 1)" />
		</clipPath>
	</defs>
</svg>
